<svg viewBox="0 0 500 500" xmlns="http://www.w3.org/2000/svg">

    <defs>
        <linearGradient id="sqGrad" x1="0%" y1="0%" x2="100%" y2="100%">
            <stop offset="0%" stop-color="#22C55E"/>
            <stop offset="100%" stop-color="#0D9488"/>
        </linearGradient>
    </defs>

    <rect x="32.00" y="214.00" width="20" height="20" rx="6" ry="6" fill="url(#sqGrad)" opacity="0.48"/>
    <rect x="32.00" y="240.00" width="20" height="20" rx="6" ry="6" fill="url(#sqGrad)" opacity="0.48"/>
    <rect x="32.00" y="266.00" width="20" height="20" rx="6" ry="6" fill="url(#sqGrad)" opacity="0.48"/>
    <rect x="58.00" y="136.00" width="20" height="20" rx="6" ry="6" fill="url(#sqGrad)" opacity="0.48"/>
    <rect x="58.00" y="162.00" width="20" height="20" rx="6" ry="6" fill="url(#sqGrad)" opacity="0.50"/>
    <rect x="58.00" y="188.00" width="20" height="20" rx="6" ry="6" fill="url(#sqGrad)" opacity="0.53"/>
    <rect x="58.00" y="214.00" width="20" height="20" rx="6" ry="6" fill="url(#sqGrad)" opacity="0.54"/>
    <rect x="58.00" y="240.00" width="20" height="20" rx="6" ry="6" fill="url(#sqGrad)" opacity="0.55"/>
    <rect x="58.00" y="266.00" width="20" height="20" rx="6" ry="6" fill="url(#sqGrad)" opacity="0.54"/>
    <rect x="58.00" y="292.00" width="20" height="20" rx="6" ry="6" fill="url(#sqGrad)" opacity="0.53"/>
    <rect x="58.00" y="318.00" width="20" height="20" rx="6" ry="6" fill="url(#sqGrad)" opacity="0.50"/>
    <rect x="58.00" y="344.00" width="20" height="20" rx="6" ry="6" fill="url(#sqGrad)" opacity="0.48"/>
    <rect x="84.00" y="110.00" width="20" height="20" rx="6" ry="6" fill="url(#sqGrad)" opacity="0.49"/>
    <rect x="84.00" y="136.00" width="20" height="20" rx="6" ry="6" fill="url(#sqGrad)" opacity="0.53"/>
    <rect x="84.00" y="162.00" width="20" height="20" rx="6" ry="6" fill="url(#sqGrad)" opacity="0.56"/>
    <rect x="84.00" y="188.00" width="20" height="20" rx="6" ry="6" fill="url(#sqGrad)" opacity="0.59"/>
    <rect x="84.00" y="214.00" width="20" height="20" rx="6" ry="6" fill="url(#sqGrad)" opacity="0.60"/>
    <rect x="84.00" y="240.00" width="20" height="20" rx="6" ry="6" fill="url(#sqGrad)" opacity="0.61"/>
    <rect x="84.00" y="266.00" width="20" height="20" rx="6" ry="6" fill="url(#sqGrad)" opacity="0.60"/>
    <rect x="84.00" y="292.00" width="20" height="20" rx="6" ry="6" fill="url(#sqGrad)" opacity="0.59"/>
    <rect x="84.00" y="318.00" width="20" height="20" rx="6" ry="6" fill="url(#sqGrad)" opacity="0.56"/>
    <rect x="84.00" y="344.00" width="20" height="20" rx="6" ry="6" fill="url(#sqGrad)" opacity="0.53"/>
    <rect x="84.00" y="370.00" width="20" height="20" rx="6" ry="6" fill="url(#sqGrad)" opacity="0.49"/>
    <rect x="110.00" y="84.00" width="20" height="20" rx="6" ry="6" fill="url(#sqGrad)" opacity="0.49"/>
    <rect x="110.00" y="110.00" width="20" height="20" rx="6" ry="6" fill="url(#sqGrad)" opacity="0.54"/>
    <rect x="110.00" y="136.00" width="20" height="20" rx="6" ry="6" fill="url(#sqGrad)" opacity="0.58"/>
    <rect x="110.00" y="162.00" width="20" height="20" rx="6" ry="6" fill="url(#sqGrad)" opacity="0.62"/>
    <rect x="110.00" y="188.00" width="20" height="20" rx="6" ry="6" fill="url(#sqGrad)" opacity="0.65"/>
    <rect x="110.00" y="214.00" width="20" height="20" rx="6" ry="6" fill="url(#sqGrad)" opacity="0.67"/>
    <rect x="110.00" y="240.00" width="20" height="20" rx="6" ry="6" fill="url(#sqGrad)" opacity="0.68"/>
    <rect x="110.00" y="266.00" width="20" height="20" rx="6" ry="6" fill="url(#sqGrad)" opacity="0.67"/>
    <rect x="110.00" y="292.00" width="20" height="20" rx="6" ry="6" fill="url(#sqGrad)" opacity="0.65"/>
    <rect x="110.00" y="318.00" width="20" height="20" rx="6" ry="6" fill="url(#sqGrad)" opacity="0.62"/>
    <rect x="110.00" y="344.00" width="20" height="20" rx="6" ry="6" fill="url(#sqGrad)" opacity="0.58"/>
    <rect x="110.00" y="370.00" width="20" height="20" rx="6" ry="6" fill="url(#sqGrad)" opacity="0.54"/>
    <rect x="110.00" y="396.00" width="20" height="20" rx="6" ry="6" fill="url(#sqGrad)" opacity="0.49"/>
    <rect x="136.00" y="58.00" width="20" height="20" rx="6" ry="6" fill="url(#sqGrad)" opacity="0.48"/>
    <rect x="136.00" y="84.00" width="20" height="20" rx="6" ry="6" fill="url(#sqGrad)" opacity="0.53"/>
    <rect x="136.00" y="110.00" width="20" height="20" rx="6" ry="6" fill="url(#sqGrad)" opacity="0.58"/>
    <rect x="136.00" y="136.00" width="20" height="20" rx="6" ry="6" fill="url(#sqGrad)" opacity="0.63"/>
    <rect x="136.00" y="162.00" width="20" height="20" rx="6" ry="6" fill="url(#sqGrad)" opacity="0.68"/>
    <rect x="136.00" y="188.00" width="20" height="20" rx="6" ry="6" fill="url(#sqGrad)" opacity="0.71"/>
    <rect x="136.00" y="214.00" width="20" height="20" rx="6" ry="6" fill="url(#sqGrad)" opacity="0.73"/>
    <rect x="136.00" y="240.00" width="20" height="20" rx="6" ry="6" fill="url(#sqGrad)" opacity="0.74"/>
    <rect x="136.00" y="266.00" width="20" height="20" rx="6" ry="6" fill="url(#sqGrad)" opacity="0.73"/>
    <rect x="136.00" y="292.00" width="20" height="20" rx="6" ry="6" fill="url(#sqGrad)" opacity="0.71"/>
    <rect x="136.00" y="318.00" width="20" height="20" rx="6" ry="6" fill="url(#sqGrad)" opacity="0.68"/>
    <rect x="136.00" y="344.00" width="20" height="20" rx="6" ry="6" fill="url(#sqGrad)" opacity="0.63"/>
    <rect x="136.00" y="370.00" width="20" height="20" rx="6" ry="6" fill="url(#sqGrad)" opacity="0.58"/>
    <rect x="136.00" y="396.00" width="20" height="20" rx="6" ry="6" fill="url(#sqGrad)" opacity="0.53"/>
    <rect x="136.00" y="422.00" width="20" height="20" rx="6" ry="6" fill="url(#sqGrad)" opacity="0.48"/>
    <rect x="162.00" y="58.00" width="20" height="20" rx="6" ry="6" fill="url(#sqGrad)" opacity="0.50"/>
    <rect x="162.00" y="84.00" width="20" height="20" rx="6" ry="6" fill="url(#sqGrad)" opacity="0.56"/>
    <rect x="162.00" y="110.00" width="20" height="20" rx="6" ry="6" fill="url(#sqGrad)" opacity="0.62"/>
    <rect x="162.00" y="136.00" width="20" height="20" rx="6" ry="6" fill="url(#sqGrad)" opacity="0.68"/>
    <rect x="162.00" y="162.00" width="20" height="20" rx="6" ry="6" fill="url(#sqGrad)" opacity="0.72"/>
    <rect x="162.00" y="188.00" width="20" height="20" rx="6" ry="6" fill="url(#sqGrad)" opacity="0.77"/>
    <rect x="162.00" y="214.00" width="20" height="20" rx="6" ry="6" fill="url(#sqGrad)" opacity="0.79"/>
    <rect x="162.00" y="240.00" width="20" height="20" rx="6" ry="6" fill="url(#sqGrad)" opacity="0.81"/>
    <rect x="162.00" y="266.00" width="20" height="20" rx="6" ry="6" fill="url(#sqGrad)" opacity="0.79"/>
    <rect x="162.00" y="292.00" width="20" height="20" rx="6" ry="6" fill="url(#sqGrad)" opacity="0.77"/>
    <rect x="162.00" y="318.00" width="20" height="20" rx="6" ry="6" fill="url(#sqGrad)" opacity="0.72"/>
    <rect x="162.00" y="344.00" width="20" height="20" rx="6" ry="6" fill="url(#sqGrad)" opacity="0.68"/>
    <rect x="162.00" y="370.00" width="20" height="20" rx="6" ry="6" fill="url(#sqGrad)" opacity="0.62"/>
    <rect x="162.00" y="396.00" width="20" height="20" rx="6" ry="6" fill="url(#sqGrad)" opacity="0.56"/>
    <rect x="162.00" y="422.00" width="20" height="20" rx="6" ry="6" fill="url(#sqGrad)" opacity="0.50"/>
    <rect x="188.00" y="58.00" width="20" height="20" rx="6" ry="6" fill="url(#sqGrad)" opacity="0.53"/>
    <rect x="188.00" y="84.00" width="20" height="20" rx="6" ry="6" fill="url(#sqGrad)" opacity="0.59"/>
    <rect x="188.00" y="110.00" width="20" height="20" rx="6" ry="6" fill="url(#sqGrad)" opacity="0.65"/>
    <rect x="188.00" y="136.00" width="20" height="20" rx="6" ry="6" fill="url(#sqGrad)" opacity="0.71"/>
    <rect x="188.00" y="162.00" width="20" height="20" rx="6" ry="6" fill="url(#sqGrad)" opacity="0.77"/>
    <rect x="188.00" y="188.00" width="20" height="20" rx="6" ry="6" fill="url(#sqGrad)" opacity="0.82"/>
    <rect x="188.00" y="214.00" width="20" height="20" rx="6" ry="6" fill="url(#sqGrad)" opacity="0.85"/>
    <rect x="188.00" y="240.00" width="20" height="20" rx="6" ry="6" fill="url(#sqGrad)" opacity="0.87"/>
    <rect x="188.00" y="266.00" width="20" height="20" rx="6" ry="6" fill="url(#sqGrad)" opacity="0.85"/>
    <rect x="188.00" y="292.00" width="20" height="20" rx="6" ry="6" fill="url(#sqGrad)" opacity="0.82"/>
    <rect x="188.00" y="318.00" width="20" height="20" rx="6" ry="6" fill="url(#sqGrad)" opacity="0.77"/>
    <rect x="188.00" y="344.00" width="20" height="20" rx="6" ry="6" fill="url(#sqGrad)" opacity="0.71"/>
    <rect x="188.00" y="370.00" width="20" height="20" rx="6" ry="6" fill="url(#sqGrad)" opacity="0.65"/>
    <rect x="188.00" y="396.00" width="20" height="20" rx="6" ry="6" fill="url(#sqGrad)" opacity="0.59"/>
    <rect x="188.00" y="422.00" width="20" height="20" rx="6" ry="6" fill="url(#sqGrad)" opacity="0.53"/>
    <rect x="214.00" y="32.00" width="20" height="20" rx="6" ry="6" fill="url(#sqGrad)" opacity="0.48"/>
    <rect x="214.00" y="58.00" width="20" height="20" rx="6" ry="6" fill="url(#sqGrad)" opacity="0.54"/>
    <rect x="214.00" y="84.00" width="20" height="20" rx="6" ry="6" fill="url(#sqGrad)" opacity="0.60"/>
    <rect x="214.00" y="110.00" width="20" height="20" rx="6" ry="6" fill="url(#sqGrad)" opacity="0.67"/>
    <rect x="214.00" y="136.00" width="20" height="20" rx="6" ry="6" fill="url(#sqGrad)" opacity="0.73"/>
    <rect x="214.00" y="162.00" width="20" height="20" rx="6" ry="6" fill="url(#sqGrad)" opacity="0.79"/>
    <rect x="214.00" y="188.00" width="20" height="20" rx="6" ry="6" fill="url(#sqGrad)" opacity="0.85"/>
    <rect x="214.00" y="214.00" width="20" height="20" rx="6" ry="6" fill="url(#sqGrad)" opacity="0.91"/>
    <rect x="214.00" y="240.00" width="20" height="20" rx="6" ry="6" fill="url(#sqGrad)" opacity="0.94"/>
    <rect x="214.00" y="266.00" width="20" height="20" rx="6" ry="6" fill="url(#sqGrad)" opacity="0.91"/>
    <rect x="214.00" y="292.00" width="20" height="20" rx="6" ry="6" fill="url(#sqGrad)" opacity="0.85"/>
    <rect x="214.00" y="318.00" width="20" height="20" rx="6" ry="6" fill="url(#sqGrad)" opacity="0.79"/>
    <rect x="214.00" y="344.00" width="20" height="20" rx="6" ry="6" fill="url(#sqGrad)" opacity="0.73"/>
    <rect x="214.00" y="370.00" width="20" height="20" rx="6" ry="6" fill="url(#sqGrad)" opacity="0.67"/>
    <rect x="214.00" y="396.00" width="20" height="20" rx="6" ry="6" fill="url(#sqGrad)" opacity="0.60"/>
    <rect x="214.00" y="422.00" width="20" height="20" rx="6" ry="6" fill="url(#sqGrad)" opacity="0.54"/>
    <rect x="214.00" y="448.00" width="20" height="20" rx="6" ry="6" fill="url(#sqGrad)" opacity="0.48"/>
    <rect x="240.00" y="32.00" width="20" height="20" rx="6" ry="6" fill="url(#sqGrad)" opacity="0.48"/>
    <rect x="240.00" y="58.00" width="20" height="20" rx="6" ry="6" fill="url(#sqGrad)" opacity="0.55"/>
    <rect x="240.00" y="84.00" width="20" height="20" rx="6" ry="6" fill="url(#sqGrad)" opacity="0.61"/>
    <rect x="240.00" y="110.00" width="20" height="20" rx="6" ry="6" fill="url(#sqGrad)" opacity="0.68"/>
    <rect x="240.00" y="136.00" width="20" height="20" rx="6" ry="6" fill="url(#sqGrad)" opacity="0.74"/>
    <rect x="240.00" y="162.00" width="20" height="20" rx="6" ry="6" fill="url(#sqGrad)" opacity="0.81"/>
    <rect x="240.00" y="188.00" width="20" height="20" rx="6" ry="6" fill="url(#sqGrad)" opacity="0.87"/>
    <rect x="240.00" y="214.00" width="20" height="20" rx="6" ry="6" fill="url(#sqGrad)" opacity="0.94"/>
    <rect x="240.00" y="240.00" width="20" height="20" rx="6" ry="6" fill="url(#sqGrad)" opacity="1.00"/>
    <rect x="240.00" y="266.00" width="20" height="20" rx="6" ry="6" fill="url(#sqGrad)" opacity="0.94"/>
    <rect x="240.00" y="292.00" width="20" height="20" rx="6" ry="6" fill="url(#sqGrad)" opacity="0.87"/>
    <rect x="240.00" y="318.00" width="20" height="20" rx="6" ry="6" fill="url(#sqGrad)" opacity="0.81"/>
    <rect x="240.00" y="344.00" width="20" height="20" rx="6" ry="6" fill="url(#sqGrad)" opacity="0.74"/>
    <rect x="240.00" y="370.00" width="20" height="20" rx="6" ry="6" fill="url(#sqGrad)" opacity="0.68"/>
    <rect x="240.00" y="396.00" width="20" height="20" rx="6" ry="6" fill="url(#sqGrad)" opacity="0.61"/>
    <rect x="240.00" y="422.00" width="20" height="20" rx="6" ry="6" fill="url(#sqGrad)" opacity="0.55"/>
    <rect x="240.00" y="448.00" width="20" height="20" rx="6" ry="6" fill="url(#sqGrad)" opacity="0.48"/>
    <rect x="266.00" y="32.00" width="20" height="20" rx="6" ry="6" fill="url(#sqGrad)" opacity="0.48"/>
    <rect x="266.00" y="58.00" width="20" height="20" rx="6" ry="6" fill="url(#sqGrad)" opacity="0.54"/>
    <rect x="266.00" y="84.00" width="20" height="20" rx="6" ry="6" fill="url(#sqGrad)" opacity="0.60"/>
    <rect x="266.00" y="110.00" width="20" height="20" rx="6" ry="6" fill="url(#sqGrad)" opacity="0.67"/>
    <rect x="266.00" y="136.00" width="20" height="20" rx="6" ry="6" fill="url(#sqGrad)" opacity="0.73"/>
    <rect x="266.00" y="162.00" width="20" height="20" rx="6" ry="6" fill="url(#sqGrad)" opacity="0.79"/>
    <rect x="266.00" y="188.00" width="20" height="20" rx="6" ry="6" fill="url(#sqGrad)" opacity="0.85"/>
    <rect x="266.00" y="214.00" width="20" height="20" rx="6" ry="6" fill="url(#sqGrad)" opacity="0.91"/>
    <rect x="266.00" y="240.00" width="20" height="20" rx="6" ry="6" fill="url(#sqGrad)" opacity="0.94"/>
    <rect x="266.00" y="266.00" width="20" height="20" rx="6" ry="6" fill="url(#sqGrad)" opacity="0.91"/>
    <rect x="266.00" y="292.00" width="20" height="20" rx="6" ry="6" fill="url(#sqGrad)" opacity="0.85"/>
    <rect x="266.00" y="318.00" width="20" height="20" rx="6" ry="6" fill="url(#sqGrad)" opacity="0.79"/>
    <rect x="266.00" y="344.00" width="20" height="20" rx="6" ry="6" fill="url(#sqGrad)" opacity="0.73"/>
    <rect x="266.00" y="370.00" width="20" height="20" rx="6" ry="6" fill="url(#sqGrad)" opacity="0.67"/>
    <rect x="266.00" y="396.00" width="20" height="20" rx="6" ry="6" fill="url(#sqGrad)" opacity="0.60"/>
    <rect x="266.00" y="422.00" width="20" height="20" rx="6" ry="6" fill="url(#sqGrad)" opacity="0.54"/>
    <rect x="266.00" y="448.00" width="20" height="20" rx="6" ry="6" fill="url(#sqGrad)" opacity="0.48"/>
    <rect x="292.00" y="58.00" width="20" height="20" rx="6" ry="6" fill="url(#sqGrad)" opacity="0.53"/>
    <rect x="292.00" y="84.00" width="20" height="20" rx="6" ry="6" fill="url(#sqGrad)" opacity="0.59"/>
    <rect x="292.00" y="110.00" width="20" height="20" rx="6" ry="6" fill="url(#sqGrad)" opacity="0.65"/>
    <rect x="292.00" y="136.00" width="20" height="20" rx="6" ry="6" fill="url(#sqGrad)" opacity="0.71"/>
    <rect x="292.00" y="162.00" width="20" height="20" rx="6" ry="6" fill="url(#sqGrad)" opacity="0.77"/>
    <rect x="292.00" y="188.00" width="20" height="20" rx="6" ry="6" fill="url(#sqGrad)" opacity="0.82"/>
    <rect x="292.00" y="214.00" width="20" height="20" rx="6" ry="6" fill="url(#sqGrad)" opacity="0.85"/>
    <rect x="292.00" y="240.00" width="20" height="20" rx="6" ry="6" fill="url(#sqGrad)" opacity="0.87"/>
    <rect x="292.00" y="266.00" width="20" height="20" rx="6" ry="6" fill="url(#sqGrad)" opacity="0.85"/>
    <rect x="292.00" y="292.00" width="20" height="20" rx="6" ry="6" fill="url(#sqGrad)" opacity="0.82"/>
    <rect x="292.00" y="318.00" width="20" height="20" rx="6" ry="6" fill="url(#sqGrad)" opacity="0.77"/>
    <rect x="292.00" y="344.00" width="20" height="20" rx="6" ry="6" fill="url(#sqGrad)" opacity="0.71"/>
    <rect x="292.00" y="370.00" width="20" height="20" rx="6" ry="6" fill="url(#sqGrad)" opacity="0.65"/>
    <rect x="292.00" y="396.00" width="20" height="20" rx="6" ry="6" fill="url(#sqGrad)" opacity="0.59"/>
    <rect x="292.00" y="422.00" width="20" height="20" rx="6" ry="6" fill="url(#sqGrad)" opacity="0.53"/>
    <rect x="318.00" y="58.00" width="20" height="20" rx="6" ry="6" fill="url(#sqGrad)" opacity="0.50"/>
    <rect x="318.00" y="84.00" width="20" height="20" rx="6" ry="6" fill="url(#sqGrad)" opacity="0.56"/>
    <rect x="318.00" y="110.00" width="20" height="20" rx="6" ry="6" fill="url(#sqGrad)" opacity="0.62"/>
    <rect x="318.00" y="136.00" width="20" height="20" rx="6" ry="6" fill="url(#sqGrad)" opacity="0.68"/>
    <rect x="318.00" y="162.00" width="20" height="20" rx="6" ry="6" fill="url(#sqGrad)" opacity="0.72"/>
    <rect x="318.00" y="188.00" width="20" height="20" rx="6" ry="6" fill="url(#sqGrad)" opacity="0.77"/>
    <rect x="318.00" y="214.00" width="20" height="20" rx="6" ry="6" fill="url(#sqGrad)" opacity="0.79"/>
    <rect x="318.00" y="240.00" width="20" height="20" rx="6" ry="6" fill="url(#sqGrad)" opacity="0.81"/>
    <rect x="318.00" y="266.00" width="20" height="20" rx="6" ry="6" fill="url(#sqGrad)" opacity="0.79"/>
    <rect x="318.00" y="292.00" width="20" height="20" rx="6" ry="6" fill="url(#sqGrad)" opacity="0.77"/>
    <rect x="318.00" y="318.00" width="20" height="20" rx="6" ry="6" fill="url(#sqGrad)" opacity="0.72"/>
    <rect x="318.00" y="344.00" width="20" height="20" rx="6" ry="6" fill="url(#sqGrad)" opacity="0.68"/>
    <rect x="318.00" y="370.00" width="20" height="20" rx="6" ry="6" fill="url(#sqGrad)" opacity="0.62"/>
    <rect x="318.00" y="396.00" width="20" height="20" rx="6" ry="6" fill="url(#sqGrad)" opacity="0.56"/>
    <rect x="318.00" y="422.00" width="20" height="20" rx="6" ry="6" fill="url(#sqGrad)" opacity="0.50"/>
    <rect x="344.00" y="58.00" width="20" height="20" rx="6" ry="6" fill="url(#sqGrad)" opacity="0.48"/>
    <rect x="344.00" y="84.00" width="20" height="20" rx="6" ry="6" fill="url(#sqGrad)" opacity="0.53"/>
    <rect x="344.00" y="110.00" width="20" height="20" rx="6" ry="6" fill="url(#sqGrad)" opacity="0.58"/>
    <rect x="344.00" y="136.00" width="20" height="20" rx="6" ry="6" fill="url(#sqGrad)" opacity="0.63"/>
    <rect x="344.00" y="162.00" width="20" height="20" rx="6" ry="6" fill="url(#sqGrad)" opacity="0.68"/>
    <rect x="344.00" y="188.00" width="20" height="20" rx="6" ry="6" fill="url(#sqGrad)" opacity="0.71"/>
    <rect x="344.00" y="214.00" width="20" height="20" rx="6" ry="6" fill="url(#sqGrad)" opacity="0.73"/>
    <rect x="344.00" y="240.00" width="20" height="20" rx="6" ry="6" fill="url(#sqGrad)" opacity="0.74"/>
    <rect x="344.00" y="266.00" width="20" height="20" rx="6" ry="6" fill="url(#sqGrad)" opacity="0.73"/>
    <rect x="344.00" y="292.00" width="20" height="20" rx="6" ry="6" fill="url(#sqGrad)" opacity="0.71"/>
    <rect x="344.00" y="318.00" width="20" height="20" rx="6" ry="6" fill="url(#sqGrad)" opacity="0.68"/>
    <rect x="344.00" y="344.00" width="20" height="20" rx="6" ry="6" fill="url(#sqGrad)" opacity="0.63"/>
    <rect x="344.00" y="370.00" width="20" height="20" rx="6" ry="6" fill="url(#sqGrad)" opacity="0.58"/>
    <rect x="344.00" y="396.00" width="20" height="20" rx="6" ry="6" fill="url(#sqGrad)" opacity="0.53"/>
    <rect x="344.00" y="422.00" width="20" height="20" rx="6" ry="6" fill="url(#sqGrad)" opacity="0.48"/>
    <rect x="370.00" y="84.00" width="20" height="20" rx="6" ry="6" fill="url(#sqGrad)" opacity="0.49"/>
    <rect x="370.00" y="110.00" width="20" height="20" rx="6" ry="6" fill="url(#sqGrad)" opacity="0.54"/>
    <rect x="370.00" y="136.00" width="20" height="20" rx="6" ry="6" fill="url(#sqGrad)" opacity="0.58"/>
    <rect x="370.00" y="162.00" width="20" height="20" rx="6" ry="6" fill="url(#sqGrad)" opacity="0.62"/>
    <rect x="370.00" y="188.00" width="20" height="20" rx="6" ry="6" fill="url(#sqGrad)" opacity="0.65"/>
    <rect x="370.00" y="214.00" width="20" height="20" rx="6" ry="6" fill="url(#sqGrad)" opacity="0.67"/>
    <rect x="370.00" y="240.00" width="20" height="20" rx="6" ry="6" fill="url(#sqGrad)" opacity="0.68"/>
    <rect x="370.00" y="266.00" width="20" height="20" rx="6" ry="6" fill="url(#sqGrad)" opacity="0.67"/>
    <rect x="370.00" y="292.00" width="20" height="20" rx="6" ry="6" fill="url(#sqGrad)" opacity="0.65"/>
    <rect x="370.00" y="318.00" width="20" height="20" rx="6" ry="6" fill="url(#sqGrad)" opacity="0.62"/>
    <rect x="370.00" y="344.00" width="20" height="20" rx="6" ry="6" fill="url(#sqGrad)" opacity="0.58"/>
    <rect x="370.00" y="370.00" width="20" height="20" rx="6" ry="6" fill="url(#sqGrad)" opacity="0.54"/>
    <rect x="370.00" y="396.00" width="20" height="20" rx="6" ry="6" fill="url(#sqGrad)" opacity="0.49"/>
    <rect x="396.00" y="110.00" width="20" height="20" rx="6" ry="6" fill="url(#sqGrad)" opacity="0.49"/>
    <rect x="396.00" y="136.00" width="20" height="20" rx="6" ry="6" fill="url(#sqGrad)" opacity="0.53"/>
    <rect x="396.00" y="162.00" width="20" height="20" rx="6" ry="6" fill="url(#sqGrad)" opacity="0.56"/>
    <rect x="396.00" y="188.00" width="20" height="20" rx="6" ry="6" fill="url(#sqGrad)" opacity="0.59"/>
    <rect x="396.00" y="214.00" width="20" height="20" rx="6" ry="6" fill="url(#sqGrad)" opacity="0.60"/>
    <rect x="396.00" y="240.00" width="20" height="20" rx="6" ry="6" fill="url(#sqGrad)" opacity="0.61"/>
    <rect x="396.00" y="266.00" width="20" height="20" rx="6" ry="6" fill="url(#sqGrad)" opacity="0.60"/>
    <rect x="396.00" y="292.00" width="20" height="20" rx="6" ry="6" fill="url(#sqGrad)" opacity="0.59"/>
    <rect x="396.00" y="318.00" width="20" height="20" rx="6" ry="6" fill="url(#sqGrad)" opacity="0.56"/>
    <rect x="396.00" y="344.00" width="20" height="20" rx="6" ry="6" fill="url(#sqGrad)" opacity="0.53"/>
    <rect x="396.00" y="370.00" width="20" height="20" rx="6" ry="6" fill="url(#sqGrad)" opacity="0.49"/>
    <rect x="422.00" y="136.00" width="20" height="20" rx="6" ry="6" fill="url(#sqGrad)" opacity="0.48"/>
    <rect x="422.00" y="162.00" width="20" height="20" rx="6" ry="6" fill="url(#sqGrad)" opacity="0.50"/>
    <rect x="422.00" y="188.00" width="20" height="20" rx="6" ry="6" fill="url(#sqGrad)" opacity="0.53"/>
    <rect x="422.00" y="214.00" width="20" height="20" rx="6" ry="6" fill="url(#sqGrad)" opacity="0.54"/>
    <rect x="422.00" y="240.00" width="20" height="20" rx="6" ry="6" fill="url(#sqGrad)" opacity="0.55"/>
    <rect x="422.00" y="266.00" width="20" height="20" rx="6" ry="6" fill="url(#sqGrad)" opacity="0.54"/>
    <rect x="422.00" y="292.00" width="20" height="20" rx="6" ry="6" fill="url(#sqGrad)" opacity="0.53"/>
    <rect x="422.00" y="318.00" width="20" height="20" rx="6" ry="6" fill="url(#sqGrad)" opacity="0.50"/>
    <rect x="422.00" y="344.00" width="20" height="20" rx="6" ry="6" fill="url(#sqGrad)" opacity="0.48"/>
    <rect x="448.00" y="214.00" width="20" height="20" rx="6" ry="6" fill="url(#sqGrad)" opacity="0.48"/>
    <rect x="448.00" y="240.00" width="20" height="20" rx="6" ry="6" fill="url(#sqGrad)" opacity="0.48"/>
    <rect x="448.00" y="266.00" width="20" height="20" rx="6" ry="6" fill="url(#sqGrad)" opacity="0.48"/>
</svg>