<svg viewBox="0 0 500 500" xmlns="http://www.w3.org/2000/svg">

    <defs>
        <linearGradient id="sqGrad" x1="0%" y1="0%" x2="100%" y2="100%">
            <stop offset="0%" stop-color="#9CA3AF"/>
            <stop offset="100%" stop-color="#6B7280"/>
        </linearGradient>
    </defs>

    <rect x="32.00" y="214.00" width="20" height="20" rx="6" ry="6" fill="url(#sqGrad)" opacity="0.105"/>
    <rect x="32.00" y="240.00" width="20" height="20" rx="6" ry="6" fill="url(#sqGrad)" opacity="0.105"/>
    <rect x="32.00" y="266.00" width="20" height="20" rx="6" ry="6" fill="url(#sqGrad)" opacity="0.105"/>
    <rect x="58.00" y="136.00" width="20" height="20" rx="6" ry="6" fill="url(#sqGrad)" opacity="0.105"/>
    <rect x="58.00" y="162.00" width="20" height="20" rx="6" ry="6" fill="url(#sqGrad)" opacity="0.110"/>
    <rect x="58.00" y="188.00" width="20" height="20" rx="6" ry="6" fill="url(#sqGrad)" opacity="0.114"/>
    <rect x="58.00" y="214.00" width="20" height="20" rx="6" ry="6" fill="url(#sqGrad)" opacity="0.116"/>
    <rect x="58.00" y="240.00" width="20" height="20" rx="6" ry="6" fill="url(#sqGrad)" opacity="0.117"/>
    <rect x="58.00" y="266.00" width="20" height="20" rx="6" ry="6" fill="url(#sqGrad)" opacity="0.116"/>
    <rect x="58.00" y="292.00" width="20" height="20" rx="6" ry="6" fill="url(#sqGrad)" opacity="0.114"/>
    <rect x="58.00" y="318.00" width="20" height="20" rx="6" ry="6" fill="url(#sqGrad)" opacity="0.110"/>
    <rect x="58.00" y="344.00" width="20" height="20" rx="6" ry="6" fill="url(#sqGrad)" opacity="0.105"/>
    <rect x="84.00" y="110.00" width="20" height="20" rx="6" ry="6" fill="url(#sqGrad)" opacity="0.108"/>
    <rect x="84.00" y="136.00" width="20" height="20" rx="6" ry="6" fill="url(#sqGrad)" opacity="0.115"/>
    <rect x="84.00" y="162.00" width="20" height="20" rx="6" ry="6" fill="url(#sqGrad)" opacity="0.121"/>
    <rect x="84.00" y="188.00" width="20" height="20" rx="6" ry="6" fill="url(#sqGrad)" opacity="0.125"/>
    <rect x="84.00" y="214.00" width="20" height="20" rx="6" ry="6" fill="url(#sqGrad)" opacity="0.128"/>
    <rect x="84.00" y="240.00" width="20" height="20" rx="6" ry="6" fill="url(#sqGrad)" opacity="0.129"/>
    <rect x="84.00" y="266.00" width="20" height="20" rx="6" ry="6" fill="url(#sqGrad)" opacity="0.128"/>
    <rect x="84.00" y="292.00" width="20" height="20" rx="6" ry="6" fill="url(#sqGrad)" opacity="0.125"/>
    <rect x="84.00" y="318.00" width="20" height="20" rx="6" ry="6" fill="url(#sqGrad)" opacity="0.121"/>
    <rect x="84.00" y="344.00" width="20" height="20" rx="6" ry="6" fill="url(#sqGrad)" opacity="0.115"/>
    <rect x="84.00" y="370.00" width="20" height="20" rx="6" ry="6" fill="url(#sqGrad)" opacity="0.108"/>
    <rect x="110.00" y="84.00" width="20" height="20" rx="6" ry="6" fill="url(#sqGrad)" opacity="0.108"/>
    <rect x="110.00" y="110.00" width="20" height="20" rx="6" ry="6" fill="url(#sqGrad)" opacity="0.116"/>
    <rect x="110.00" y="136.00" width="20" height="20" rx="6" ry="6" fill="url(#sqGrad)" opacity="0.124"/>
    <rect x="110.00" y="162.00" width="20" height="20" rx="6" ry="6" fill="url(#sqGrad)" opacity="0.131"/>
    <rect x="110.00" y="188.00" width="20" height="20" rx="6" ry="6" fill="url(#sqGrad)" opacity="0.136"/>
    <rect x="110.00" y="214.00" width="20" height="20" rx="6" ry="6" fill="url(#sqGrad)" opacity="0.140"/>
    <rect x="110.00" y="240.00" width="20" height="20" rx="6" ry="6" fill="url(#sqGrad)" opacity="0.141"/>
    <rect x="110.00" y="266.00" width="20" height="20" rx="6" ry="6" fill="url(#sqGrad)" opacity="0.140"/>
    <rect x="110.00" y="292.00" width="20" height="20" rx="6" ry="6" fill="url(#sqGrad)" opacity="0.136"/>
    <rect x="110.00" y="318.00" width="20" height="20" rx="6" ry="6" fill="url(#sqGrad)" opacity="0.131"/>
    <rect x="110.00" y="344.00" width="20" height="20" rx="6" ry="6" fill="url(#sqGrad)" opacity="0.124"/>
    <rect x="110.00" y="370.00" width="20" height="20" rx="6" ry="6" fill="url(#sqGrad)" opacity="0.116"/>
    <rect x="110.00" y="396.00" width="20" height="20" rx="6" ry="6" fill="url(#sqGrad)" opacity="0.108"/>
    <rect x="136.00" y="58.00" width="20" height="20" rx="6" ry="6" fill="url(#sqGrad)" opacity="0.105"/>
    <rect x="136.00" y="84.00" width="20" height="20" rx="6" ry="6" fill="url(#sqGrad)" opacity="0.115"/>
    <rect x="136.00" y="110.00" width="20" height="20" rx="6" ry="6" fill="url(#sqGrad)" opacity="0.124"/>
    <rect x="136.00" y="136.00" width="20" height="20" rx="6" ry="6" fill="url(#sqGrad)" opacity="0.133"/>
    <rect x="136.00" y="162.00" width="20" height="20" rx="6" ry="6" fill="url(#sqGrad)" opacity="0.141"/>
    <rect x="136.00" y="188.00" width="20" height="20" rx="6" ry="6" fill="url(#sqGrad)" opacity="0.147"/>
    <rect x="136.00" y="214.00" width="20" height="20" rx="6" ry="6" fill="url(#sqGrad)" opacity="0.151"/>
    <rect x="136.00" y="240.00" width="20" height="20" rx="6" ry="6" fill="url(#sqGrad)" opacity="0.153"/>
    <rect x="136.00" y="266.00" width="20" height="20" rx="6" ry="6" fill="url(#sqGrad)" opacity="0.151"/>
    <rect x="136.00" y="292.00" width="20" height="20" rx="6" ry="6" fill="url(#sqGrad)" opacity="0.147"/>
    <rect x="136.00" y="318.00" width="20" height="20" rx="6" ry="6" fill="url(#sqGrad)" opacity="0.141"/>
    <rect x="136.00" y="344.00" width="20" height="20" rx="6" ry="6" fill="url(#sqGrad)" opacity="0.133"/>
    <rect x="136.00" y="370.00" width="20" height="20" rx="6" ry="6" fill="url(#sqGrad)" opacity="0.124"/>
    <rect x="136.00" y="396.00" width="20" height="20" rx="6" ry="6" fill="url(#sqGrad)" opacity="0.115"/>
    <rect x="136.00" y="422.00" width="20" height="20" rx="6" ry="6" fill="url(#sqGrad)" opacity="0.105"/>
    <rect x="162.00" y="58.00" width="20" height="20" rx="6" ry="6" fill="url(#sqGrad)" opacity="0.110"/>
    <rect x="162.00" y="84.00" width="20" height="20" rx="6" ry="6" fill="url(#sqGrad)" opacity="0.121"/>
    <rect x="162.00" y="110.00" width="20" height="20" rx="6" ry="6" fill="url(#sqGrad)" opacity="0.131"/>
    <rect x="162.00" y="136.00" width="20" height="20" rx="6" ry="6" fill="url(#sqGrad)" opacity="0.141"/>
    <rect x="162.00" y="162.00" width="20" height="20" rx="6" ry="6" fill="url(#sqGrad)" opacity="0.150"/>
    <rect x="162.00" y="188.00" width="20" height="20" rx="6" ry="6" fill="url(#sqGrad)" opacity="0.157"/>
    <rect x="162.00" y="214.00" width="20" height="20" rx="6" ry="6" fill="url(#sqGrad)" opacity="0.163"/>
    <rect x="162.00" y="240.00" width="20" height="20" rx="6" ry="6" fill="url(#sqGrad)" opacity="0.165"/>
    <rect x="162.00" y="266.00" width="20" height="20" rx="6" ry="6" fill="url(#sqGrad)" opacity="0.163"/>
    <rect x="162.00" y="292.00" width="20" height="20" rx="6" ry="6" fill="url(#sqGrad)" opacity="0.157"/>
    <rect x="162.00" y="318.00" width="20" height="20" rx="6" ry="6" fill="url(#sqGrad)" opacity="0.150"/>
    <rect x="162.00" y="344.00" width="20" height="20" rx="6" ry="6" fill="url(#sqGrad)" opacity="0.141"/>
    <rect x="162.00" y="370.00" width="20" height="20" rx="6" ry="6" fill="url(#sqGrad)" opacity="0.131"/>
    <rect x="162.00" y="396.00" width="20" height="20" rx="6" ry="6" fill="url(#sqGrad)" opacity="0.121"/>
    <rect x="162.00" y="422.00" width="20" height="20" rx="6" ry="6" fill="url(#sqGrad)" opacity="0.110"/>
    <rect x="188.00" y="58.00" width="20" height="20" rx="6" ry="6" fill="url(#sqGrad)" opacity="0.114"/>
    <rect x="188.00" y="84.00" width="20" height="20" rx="6" ry="6" fill="url(#sqGrad)" opacity="0.125"/>
    <rect x="188.00" y="110.00" width="20" height="20" rx="6" ry="6" fill="url(#sqGrad)" opacity="0.136"/>
    <rect x="188.00" y="136.00" width="20" height="20" rx="6" ry="6" fill="url(#sqGrad)" opacity="0.147"/>
    <rect x="188.00" y="162.00" width="20" height="20" rx="6" ry="6" fill="url(#sqGrad)" opacity="0.157"/>
    <rect x="188.00" y="188.00" width="20" height="20" rx="6" ry="6" fill="url(#sqGrad)" opacity="0.167"/>
    <rect x="188.00" y="214.00" width="20" height="20" rx="6" ry="6" fill="url(#sqGrad)" opacity="0.174"/>
    <rect x="188.00" y="240.00" width="20" height="20" rx="6" ry="6" fill="url(#sqGrad)" opacity="0.176"/>
    <rect x="188.00" y="266.00" width="20" height="20" rx="6" ry="6" fill="url(#sqGrad)" opacity="0.174"/>
    <rect x="188.00" y="292.00" width="20" height="20" rx="6" ry="6" fill="url(#sqGrad)" opacity="0.167"/>
    <rect x="188.00" y="318.00" width="20" height="20" rx="6" ry="6" fill="url(#sqGrad)" opacity="0.157"/>
    <rect x="188.00" y="344.00" width="20" height="20" rx="6" ry="6" fill="url(#sqGrad)" opacity="0.147"/>
    <rect x="188.00" y="370.00" width="20" height="20" rx="6" ry="6" fill="url(#sqGrad)" opacity="0.136"/>
    <rect x="188.00" y="396.00" width="20" height="20" rx="6" ry="6" fill="url(#sqGrad)" opacity="0.125"/>
    <rect x="188.00" y="422.00" width="20" height="20" rx="6" ry="6" fill="url(#sqGrad)" opacity="0.114"/>
    <rect x="214.00" y="32.00" width="20" height="20" rx="6" ry="6" fill="url(#sqGrad)" opacity="0.105"/>
    <rect x="214.00" y="58.00" width="20" height="20" rx="6" ry="6" fill="url(#sqGrad)" opacity="0.116"/>
    <rect x="214.00" y="84.00" width="20" height="20" rx="6" ry="6" fill="url(#sqGrad)" opacity="0.128"/>
    <rect x="214.00" y="110.00" width="20" height="20" rx="6" ry="6" fill="url(#sqGrad)" opacity="0.140"/>
    <rect x="214.00" y="136.00" width="20" height="20" rx="6" ry="6" fill="url(#sqGrad)" opacity="0.151"/>
    <rect x="214.00" y="162.00" width="20" height="20" rx="6" ry="6" fill="url(#sqGrad)" opacity="0.163"/>
    <rect x="214.00" y="188.00" width="20" height="20" rx="6" ry="6" fill="url(#sqGrad)" opacity="0.174"/>
    <rect x="214.00" y="214.00" width="20" height="20" rx="6" ry="6" fill="url(#sqGrad)" opacity="0.183"/>
    <rect x="214.00" y="240.00" width="20" height="20" rx="6" ry="6" fill="url(#sqGrad)" opacity="0.188"/>
    <rect x="214.00" y="266.00" width="20" height="20" rx="6" ry="6" fill="url(#sqGrad)" opacity="0.183"/>
    <rect x="214.00" y="292.00" width="20" height="20" rx="6" ry="6" fill="url(#sqGrad)" opacity="0.174"/>
    <rect x="214.00" y="318.00" width="20" height="20" rx="6" ry="6" fill="url(#sqGrad)" opacity="0.163"/>
    <rect x="214.00" y="344.00" width="20" height="20" rx="6" ry="6" fill="url(#sqGrad)" opacity="0.151"/>
    <rect x="214.00" y="370.00" width="20" height="20" rx="6" ry="6" fill="url(#sqGrad)" opacity="0.140"/>
    <rect x="214.00" y="396.00" width="20" height="20" rx="6" ry="6" fill="url(#sqGrad)" opacity="0.128"/>
    <rect x="214.00" y="422.00" width="20" height="20" rx="6" ry="6" fill="url(#sqGrad)" opacity="0.116"/>
    <rect x="214.00" y="448.00" width="20" height="20" rx="6" ry="6" fill="url(#sqGrad)" opacity="0.105"/>
    <rect x="240.00" y="32.00" width="20" height="20" rx="6" ry="6" fill="url(#sqGrad)" opacity="0.105"/>
    <rect x="240.00" y="58.00" width="20" height="20" rx="6" ry="6" fill="url(#sqGrad)" opacity="0.117"/>
    <rect x="240.00" y="84.00" width="20" height="20" rx="6" ry="6" fill="url(#sqGrad)" opacity="0.129"/>
    <rect x="240.00" y="110.00" width="20" height="20" rx="6" ry="6" fill="url(#sqGrad)" opacity="0.141"/>
    <rect x="240.00" y="136.00" width="20" height="20" rx="6" ry="6" fill="url(#sqGrad)" opacity="0.153"/>
    <rect x="240.00" y="162.00" width="20" height="20" rx="6" ry="6" fill="url(#sqGrad)" opacity="0.165"/>
    <rect x="240.00" y="188.00" width="20" height="20" rx="6" ry="6" fill="url(#sqGrad)" opacity="0.176"/>
    <rect x="240.00" y="214.00" width="20" height="20" rx="6" ry="6" fill="url(#sqGrad)" opacity="0.188"/>
    <rect x="240.00" y="240.00" width="20" height="20" rx="6" ry="6" fill="url(#sqGrad)" opacity="0.200"/>
    <rect x="240.00" y="266.00" width="20" height="20" rx="6" ry="6" fill="url(#sqGrad)" opacity="0.188"/>
    <rect x="240.00" y="292.00" width="20" height="20" rx="6" ry="6" fill="url(#sqGrad)" opacity="0.176"/>
    <rect x="240.00" y="318.00" width="20" height="20" rx="6" ry="6" fill="url(#sqGrad)" opacity="0.165"/>
    <rect x="240.00" y="344.00" width="20" height="20" rx="6" ry="6" fill="url(#sqGrad)" opacity="0.153"/>
    <rect x="240.00" y="370.00" width="20" height="20" rx="6" ry="6" fill="url(#sqGrad)" opacity="0.141"/>
    <rect x="240.00" y="396.00" width="20" height="20" rx="6" ry="6" fill="url(#sqGrad)" opacity="0.129"/>
    <rect x="240.00" y="422.00" width="20" height="20" rx="6" ry="6" fill="url(#sqGrad)" opacity="0.117"/>
    <rect x="240.00" y="448.00" width="20" height="20" rx="6" ry="6" fill="url(#sqGrad)" opacity="0.105"/>
    <rect x="266.00" y="32.00" width="20" height="20" rx="6" ry="6" fill="url(#sqGrad)" opacity="0.105"/>
    <rect x="266.00" y="58.00" width="20" height="20" rx="6" ry="6" fill="url(#sqGrad)" opacity="0.116"/>
    <rect x="266.00" y="84.00" width="20" height="20" rx="6" ry="6" fill="url(#sqGrad)" opacity="0.128"/>
    <rect x="266.00" y="110.00" width="20" height="20" rx="6" ry="6" fill="url(#sqGrad)" opacity="0.140"/>
    <rect x="266.00" y="136.00" width="20" height="20" rx="6" ry="6" fill="url(#sqGrad)" opacity="0.151"/>
    <rect x="266.00" y="162.00" width="20" height="20" rx="6" ry="6" fill="url(#sqGrad)" opacity="0.163"/>
    <rect x="266.00" y="188.00" width="20" height="20" rx="6" ry="6" fill="url(#sqGrad)" opacity="0.174"/>
    <rect x="266.00" y="214.00" width="20" height="20" rx="6" ry="6" fill="url(#sqGrad)" opacity="0.183"/>
    <rect x="266.00" y="240.00" width="20" height="20" rx="6" ry="6" fill="url(#sqGrad)" opacity="0.188"/>
    <rect x="266.00" y="266.00" width="20" height="20" rx="6" ry="6" fill="url(#sqGrad)" opacity="0.183"/>
    <rect x="266.00" y="292.00" width="20" height="20" rx="6" ry="6" fill="url(#sqGrad)" opacity="0.174"/>
    <rect x="266.00" y="318.00" width="20" height="20" rx="6" ry="6" fill="url(#sqGrad)" opacity="0.163"/>
    <rect x="266.00" y="344.00" width="20" height="20" rx="6" ry="6" fill="url(#sqGrad)" opacity="0.151"/>
    <rect x="266.00" y="370.00" width="20" height="20" rx="6" ry="6" fill="url(#sqGrad)" opacity="0.140"/>
    <rect x="266.00" y="396.00" width="20" height="20" rx="6" ry="6" fill="url(#sqGrad)" opacity="0.128"/>
    <rect x="266.00" y="422.00" width="20" height="20" rx="6" ry="6" fill="url(#sqGrad)" opacity="0.116"/>
    <rect x="266.00" y="448.00" width="20" height="20" rx="6" ry="6" fill="url(#sqGrad)" opacity="0.105"/>
    <rect x="292.00" y="58.00" width="20" height="20" rx="6" ry="6" fill="url(#sqGrad)" opacity="0.114"/>
    <rect x="292.00" y="84.00" width="20" height="20" rx="6" ry="6" fill="url(#sqGrad)" opacity="0.125"/>
    <rect x="292.00" y="110.00" width="20" height="20" rx="6" ry="6" fill="url(#sqGrad)" opacity="0.136"/>
    <rect x="292.00" y="136.00" width="20" height="20" rx="6" ry="6" fill="url(#sqGrad)" opacity="0.147"/>
    <rect x="292.00" y="162.00" width="20" height="20" rx="6" ry="6" fill="url(#sqGrad)" opacity="0.157"/>
    <rect x="292.00" y="188.00" width="20" height="20" rx="6" ry="6" fill="url(#sqGrad)" opacity="0.167"/>
    <rect x="292.00" y="214.00" width="20" height="20" rx="6" ry="6" fill="url(#sqGrad)" opacity="0.174"/>
    <rect x="292.00" y="240.00" width="20" height="20" rx="6" ry="6" fill="url(#sqGrad)" opacity="0.176"/>
    <rect x="292.00" y="266.00" width="20" height="20" rx="6" ry="6" fill="url(#sqGrad)" opacity="0.174"/>
    <rect x="292.00" y="292.00" width="20" height="20" rx="6" ry="6" fill="url(#sqGrad)" opacity="0.167"/>
    <rect x="292.00" y="318.00" width="20" height="20" rx="6" ry="6" fill="url(#sqGrad)" opacity="0.157"/>
    <rect x="292.00" y="344.00" width="20" height="20" rx="6" ry="6" fill="url(#sqGrad)" opacity="0.147"/>
    <rect x="292.00" y="370.00" width="20" height="20" rx="6" ry="6" fill="url(#sqGrad)" opacity="0.136"/>
    <rect x="292.00" y="396.00" width="20" height="20" rx="6" ry="6" fill="url(#sqGrad)" opacity="0.125"/>
    <rect x="292.00" y="422.00" width="20" height="20" rx="6" ry="6" fill="url(#sqGrad)" opacity="0.114"/>
    <rect x="318.00" y="58.00" width="20" height="20" rx="6" ry="6" fill="url(#sqGrad)" opacity="0.110"/>
    <rect x="318.00" y="84.00" width="20" height="20" rx="6" ry="6" fill="url(#sqGrad)" opacity="0.121"/>
    <rect x="318.00" y="110.00" width="20" height="20" rx="6" ry="6" fill="url(#sqGrad)" opacity="0.131"/>
    <rect x="318.00" y="136.00" width="20" height="20" rx="6" ry="6" fill="url(#sqGrad)" opacity="0.141"/>
    <rect x="318.00" y="162.00" width="20" height="20" rx="6" ry="6" fill="url(#sqGrad)" opacity="0.150"/>
    <rect x="318.00" y="188.00" width="20" height="20" rx="6" ry="6" fill="url(#sqGrad)" opacity="0.157"/>
    <rect x="318.00" y="214.00" width="20" height="20" rx="6" ry="6" fill="url(#sqGrad)" opacity="0.163"/>
    <rect x="318.00" y="240.00" width="20" height="20" rx="6" ry="6" fill="url(#sqGrad)" opacity="0.165"/>
    <rect x="318.00" y="266.00" width="20" height="20" rx="6" ry="6" fill="url(#sqGrad)" opacity="0.163"/>
    <rect x="318.00" y="292.00" width="20" height="20" rx="6" ry="6" fill="url(#sqGrad)" opacity="0.157"/>
    <rect x="318.00" y="318.00" width="20" height="20" rx="6" ry="6" fill="url(#sqGrad)" opacity="0.150"/>
    <rect x="318.00" y="344.00" width="20" height="20" rx="6" ry="6" fill="url(#sqGrad)" opacity="0.141"/>
    <rect x="318.00" y="370.00" width="20" height="20" rx="6" ry="6" fill="url(#sqGrad)" opacity="0.131"/>
    <rect x="318.00" y="396.00" width="20" height="20" rx="6" ry="6" fill="url(#sqGrad)" opacity="0.121"/>
    <rect x="318.00" y="422.00" width="20" height="20" rx="6" ry="6" fill="url(#sqGrad)" opacity="0.110"/>
    <rect x="344.00" y="58.00" width="20" height="20" rx="6" ry="6" fill="url(#sqGrad)" opacity="0.105"/>
    <rect x="344.00" y="84.00" width="20" height="20" rx="6" ry="6" fill="url(#sqGrad)" opacity="0.115"/>
    <rect x="344.00" y="110.00" width="20" height="20" rx="6" ry="6" fill="url(#sqGrad)" opacity="0.124"/>
    <rect x="344.00" y="136.00" width="20" height="20" rx="6" ry="6" fill="url(#sqGrad)" opacity="0.133"/>
    <rect x="344.00" y="162.00" width="20" height="20" rx="6" ry="6" fill="url(#sqGrad)" opacity="0.141"/>
    <rect x="344.00" y="188.00" width="20" height="20" rx="6" ry="6" fill="url(#sqGrad)" opacity="0.147"/>
    <rect x="344.00" y="214.00" width="20" height="20" rx="6" ry="6" fill="url(#sqGrad)" opacity="0.151"/>
    <rect x="344.00" y="240.00" width="20" height="20" rx="6" ry="6" fill="url(#sqGrad)" opacity="0.153"/>
    <rect x="344.00" y="266.00" width="20" height="20" rx="6" ry="6" fill="url(#sqGrad)" opacity="0.151"/>
    <rect x="344.00" y="292.00" width="20" height="20" rx="6" ry="6" fill="url(#sqGrad)" opacity="0.147"/>
    <rect x="344.00" y="318.00" width="20" height="20" rx="6" ry="6" fill="url(#sqGrad)" opacity="0.141"/>
    <rect x="344.00" y="344.00" width="20" height="20" rx="6" ry="6" fill="url(#sqGrad)" opacity="0.133"/>
    <rect x="344.00" y="370.00" width="20" height="20" rx="6" ry="6" fill="url(#sqGrad)" opacity="0.124"/>
    <rect x="344.00" y="396.00" width="20" height="20" rx="6" ry="6" fill="url(#sqGrad)" opacity="0.115"/>
    <rect x="344.00" y="422.00" width="20" height="20" rx="6" ry="6" fill="url(#sqGrad)" opacity="0.105"/>
    <rect x="370.00" y="84.00" width="20" height="20" rx="6" ry="6" fill="url(#sqGrad)" opacity="0.108"/>
    <rect x="370.00" y="110.00" width="20" height="20" rx="6" ry="6" fill="url(#sqGrad)" opacity="0.116"/>
    <rect x="370.00" y="136.00" width="20" height="20" rx="6" ry="6" fill="url(#sqGrad)" opacity="0.124"/>
    <rect x="370.00" y="162.00" width="20" height="20" rx="6" ry="6" fill="url(#sqGrad)" opacity="0.131"/>
    <rect x="370.00" y="188.00" width="20" height="20" rx="6" ry="6" fill="url(#sqGrad)" opacity="0.136"/>
    <rect x="370.00" y="214.00" width="20" height="20" rx="6" ry="6" fill="url(#sqGrad)" opacity="0.140"/>
    <rect x="370.00" y="240.00" width="20" height="20" rx="6" ry="6" fill="url(#sqGrad)" opacity="0.141"/>
    <rect x="370.00" y="266.00" width="20" height="20" rx="6" ry="6" fill="url(#sqGrad)" opacity="0.140"/>
    <rect x="370.00" y="292.00" width="20" height="20" rx="6" ry="6" fill="url(#sqGrad)" opacity="0.136"/>
    <rect x="370.00" y="318.00" width="20" height="20" rx="6" ry="6" fill="url(#sqGrad)" opacity="0.131"/>
    <rect x="370.00" y="344.00" width="20" height="20" rx="6" ry="6" fill="url(#sqGrad)" opacity="0.124"/>
    <rect x="370.00" y="370.00" width="20" height="20" rx="6" ry="6" fill="url(#sqGrad)" opacity="0.116"/>
    <rect x="370.00" y="396.00" width="20" height="20" rx="6" ry="6" fill="url(#sqGrad)" opacity="0.108"/>
    <rect x="396.00" y="110.00" width="20" height="20" rx="6" ry="6" fill="url(#sqGrad)" opacity="0.108"/>
    <rect x="396.00" y="136.00" width="20" height="20" rx="6" ry="6" fill="url(#sqGrad)" opacity="0.115"/>
    <rect x="396.00" y="162.00" width="20" height="20" rx="6" ry="6" fill="url(#sqGrad)" opacity="0.121"/>
    <rect x="396.00" y="188.00" width="20" height="20" rx="6" ry="6" fill="url(#sqGrad)" opacity="0.125"/>
    <rect x="396.00" y="214.00" width="20" height="20" rx="6" ry="6" fill="url(#sqGrad)" opacity="0.128"/>
    <rect x="396.00" y="240.00" width="20" height="20" rx="6" ry="6" fill="url(#sqGrad)" opacity="0.129"/>
    <rect x="396.00" y="266.00" width="20" height="20" rx="6" ry="6" fill="url(#sqGrad)" opacity="0.128"/>
    <rect x="396.00" y="292.00" width="20" height="20" rx="6" ry="6" fill="url(#sqGrad)" opacity="0.125"/>
    <rect x="396.00" y="318.00" width="20" height="20" rx="6" ry="6" fill="url(#sqGrad)" opacity="0.121"/>
    <rect x="396.00" y="344.00" width="20" height="20" rx="6" ry="6" fill="url(#sqGrad)" opacity="0.115"/>
    <rect x="396.00" y="370.00" width="20" height="20" rx="6" ry="6" fill="url(#sqGrad)" opacity="0.108"/>
    <rect x="422.00" y="136.00" width="20" height="20" rx="6" ry="6" fill="url(#sqGrad)" opacity="0.105"/>
    <rect x="422.00" y="162.00" width="20" height="20" rx="6" ry="6" fill="url(#sqGrad)" opacity="0.110"/>
    <rect x="422.00" y="188.00" width="20" height="20" rx="6" ry="6" fill="url(#sqGrad)" opacity="0.114"/>
    <rect x="422.00" y="214.00" width="20" height="20" rx="6" ry="6" fill="url(#sqGrad)" opacity="0.116"/>
    <rect x="422.00" y="240.00" width="20" height="20" rx="6" ry="6" fill="url(#sqGrad)" opacity="0.117"/>
    <rect x="422.00" y="266.00" width="20" height="20" rx="6" ry="6" fill="url(#sqGrad)" opacity="0.116"/>
    <rect x="422.00" y="292.00" width="20" height="20" rx="6" ry="6" fill="url(#sqGrad)" opacity="0.114"/>
    <rect x="422.00" y="318.00" width="20" height="20" rx="6" ry="6" fill="url(#sqGrad)" opacity="0.110"/>
    <rect x="422.00" y="344.00" width="20" height="20" rx="6" ry="6" fill="url(#sqGrad)" opacity="0.105"/>
    <rect x="448.00" y="214.00" width="20" height="20" rx="6" ry="6" fill="url(#sqGrad)" opacity="0.105"/>
    <rect x="448.00" y="240.00" width="20" height="20" rx="6" ry="6" fill="url(#sqGrad)" opacity="0.105"/>
    <rect x="448.00" y="266.00" width="20" height="20" rx="6" ry="6" fill="url(#sqGrad)" opacity="0.105"/>
</svg>